<svg width="40" height="22" viewBox="0 0 40 22" fill="none" xmlns="http://www.w3.org/2000/svg">
<g clip-path="url(#clip0_2_8)">
<path d="M40 19.7986C40.0016 14.9291 38.176 10.2327 34.8778 6.62138L34.1691 5.84021C26.3979 -1.9018 13.7455 -1.95312 5.91073 5.72588C4.02781 7.56992 2.53523 9.76744 1.52034 12.1898C0.505448 14.6121 -0.0113511 17.2107 0.000189087 19.8333V21H3.90642V19.8333H2.37275C2.37394 15.5521 3.97577 11.4231 6.86928 8.24256L8.05029 9.30332L8.8285 8.42867L7.64833 7.39045C10.8102 4.321 15.0256 2.5469 19.4513 2.42301V4.6501H20.6319V2.37628C25.0619 2.51171 29.2769 4.29846 32.434 7.37919L31.2547 8.37025L32.0329 9.2449L33.2131 8.23088C36.0839 11.4044 37.6725 15.5148 37.6751 19.7757H36.0929V20.9416H40V19.7986Z" fill="#F4F4F4"/>
</g>
<path d="M36 20H4C4 11.7176 11.1655 5 20.0007 5C28.835 5 36 11.7176 36 20Z" fill="#656772" fill-opacity="0.3"/>
<path d="M20.3687 20.8794C20.3515 20.8805 20.335 20.8826 20.3179 20.8838C19.9273 20.9065 19.5423 20.8779 19.2038 20.801C18.9799 20.7556 18.7778 20.691 18.6061 20.61C18.2812 20.4546 18.0977 20.2478 18.0531 20.0074C18.0436 19.9686 18.0381 19.9294 18.0365 19.8899C18.0354 19.8659 18.0391 19.8418 18.0411 19.8178C18.049 19.7228 18.0808 19.6275 18.1358 19.5339C18.1886 19.4347 18.2676 19.3381 18.3705 19.2464C18.6243 19.0231 19.0262 18.8433 19.5029 18.74C19.738 18.6842 19.9872 18.6479 20.2392 18.6328C20.2496 18.6321 20.26 18.6322 20.2704 18.6317C20.302 18.6294 20.332 18.6256 20.3642 18.624C20.3834 18.6227 20.4021 18.622 20.4208 18.6218L36.5689 18.3423C36.9399 18.3356 37.2313 18.4733 37.2421 18.6598C37.2534 18.8456 36.9789 19.0203 36.6097 19.0621L20.4989 20.8713C20.472 20.8745 20.445 20.8763 20.4186 20.8778C20.4014 20.8787 20.3853 20.8785 20.3687 20.8794L20.3687 20.8794Z" fill="#F4F4F4"/>
<defs>
<clipPath id="clip0_2_8">
<rect width="40" height="21" fill="white"/>
</clipPath>
</defs>
</svg>
