<svg width="100" height="100" viewBox="0 0 100 100" fill="none" xmlns="http://www.w3.org/2000/svg">
<path d="M50 99.8L64 21.1C77.3 21.1 81.5 22.6 82.1 28.5C82.1 28.5 91 25.2 95.6 18.4C78 10.3 60.3 9.9 60.3 9.9L50 22.5L39.7 9.9C39.7 9.9 22 10.3 4.39999 18.4C8.89999 25.2 17.9 28.5 17.9 28.5C18.5 22.5 22.7 21.1 36 21.1L50 99.8V99.8Z" fill="#D10303"/>
<path d="M50 6.3C64.2 6.2 80.5 8.5 97.2 15.8C99.4 11.8 100 10 100 10C81.8 2.7 64.7 0.300001 50 0.200001C35.3 0.300001 18.2 2.7 0 10C0 10 0.8 12.2 2.8 15.8C19.5 8.5 35.8 6.2 50 6.3V6.3Z" fill="#D10303"/>
</svg>
